# xmcd CD database file
# Copyright (C) 1993-1998 Ti Kan
# 
# Track frame offsets:
#     150
#     17838
#     35646
#     56532
#     77822
#     91810
#     112935
#     134467
#     154162
#     171405
#     189731
#     202612
#     215426
#     232700
#     234844
# 
# Disc length: 3183 seconds
# 
# Revision: 1
# Processed by: cddbd v1.4b41PL1 Copyright (c) Steve Scherf et al.
# Submitted via: DiscPlay 4.0.4
# 
DISCID=b90c6d0f
DTITLE=Chris Wall - Any Saturday Night In Texas
DYEAR=1900
DGENRE=
TTITLE0=I Feel Like Singin' Along
TTITLE1=Texas Time
TTITLE2=Wild Bill and the Montana Kid
TTITLE3=Big In The Heart
TTITLE4=Runaway Cadillac
TTITLE5=A Gal From San Antone
TTITLE6=Miles Of Rodeo
TTITLE7=Damn Good Time
TTITLE8=Independence Day
TTITLE9=Makin' The Rounds
TTITLE10=The Lines On My Forehead
TTITLE11=Ship Me Back To Texas
TTITLE12=33 Reasons To Say Goodbye
TTITLE13=Fence Post in Texas
TTITLE14=Phone Call
EXTD=\nURL: http://www.ccsi.com/~danny_boy/ChrisWall.html "Chris Wall"
EXTT0=
EXTT1=
EXTT2=
EXTT3=
EXTT4=
EXTT5=
EXTT6=
EXTT7=
EXTT8=
EXTT9=
EXTT10=
EXTT11=
EXTT12=
EXTT13=
EXTT14=
PLAYORDER=
